<svg width="400" height="150" viewBox="0 0 400 150" fill="none" xmlns="http://www.w3.org/2000/svg">
<rect width="400" height="150" fill="#828282"/>
<path d="M72.4173 83.24C70.2733 83.24 68.6413 82.664 67.5213 81.512C66.4173 80.36 65.8253 78.768 65.7453 76.736C65.7293 76.304 65.7213 75.6 65.7213 74.624C65.7213 73.632 65.7293 72.912 65.7453 72.464C65.8253 70.448 66.4253 68.864 67.5453 67.712C68.6653 66.544 70.2893 65.96 72.4173 65.96C73.8413 65.96 75.0493 66.216 76.0413 66.728C77.0333 67.224 77.7853 67.88 78.2973 68.696C78.8093 69.512 79.0893 70.384 79.1373 71.312V71.36C79.1373 71.488 79.0813 71.6 78.9693 71.696C78.8733 71.776 78.7613 71.816 78.6333 71.816H77.3133C76.9933 71.816 76.7933 71.632 76.7133 71.264C76.4413 70.064 75.9533 69.224 75.2493 68.744C74.5453 68.248 73.6013 68 72.4173 68C69.6653 68 68.2413 69.528 68.1453 72.584C68.1293 73.016 68.1213 73.68 68.1213 74.576C68.1213 75.472 68.1293 76.152 68.1453 76.616C68.2413 79.672 69.6653 81.2 72.4173 81.2C73.6013 81.2 74.5453 80.96 75.2493 80.48C75.9693 79.984 76.4573 79.136 76.7133 77.936C76.7613 77.728 76.8333 77.584 76.9293 77.504C77.0253 77.424 77.1533 77.384 77.3133 77.384H78.6333C78.7773 77.384 78.8973 77.432 78.9933 77.528C79.1053 77.608 79.1533 77.72 79.1373 77.864C79.0893 78.808 78.8093 79.688 78.2973 80.504C77.7853 81.32 77.0333 81.984 76.0413 82.496C75.0493 82.992 73.8413 83.24 72.4173 83.24ZM87.1536 83.24C85.3936 83.24 84.0256 82.744 83.0496 81.752C82.0896 80.76 81.5776 79.44 81.5136 77.792L81.4896 76.76L81.5136 75.728C81.5776 74.096 82.0976 72.784 83.0736 71.792C84.0496 70.784 85.4096 70.28 87.1536 70.28C88.8976 70.28 90.2576 70.784 91.2336 71.792C92.2096 72.784 92.7296 74.096 92.7936 75.728C92.8096 75.904 92.8176 76.248 92.8176 76.76C92.8176 77.272 92.8096 77.616 92.7936 77.792C92.7296 79.44 92.2096 80.76 91.2336 81.752C90.2736 82.744 88.9136 83.24 87.1536 83.24ZM87.1536 81.392C88.1616 81.392 88.9536 81.072 89.5296 80.432C90.1216 79.792 90.4416 78.872 90.4896 77.672C90.5056 77.512 90.5136 77.208 90.5136 76.76C90.5136 76.312 90.5056 76.008 90.4896 75.848C90.4416 74.648 90.1216 73.728 89.5296 73.088C88.9536 72.448 88.1616 72.128 87.1536 72.128C86.1456 72.128 85.3456 72.448 84.7536 73.088C84.1616 73.728 83.8496 74.648 83.8176 75.848L83.7936 76.76L83.8176 77.672C83.8496 78.872 84.1616 79.792 84.7536 80.432C85.3456 81.072 86.1456 81.392 87.1536 81.392ZM96.3749 83C96.2149 83 96.0789 82.952 95.9669 82.856C95.8709 82.744 95.8229 82.608 95.8229 82.448V71.072C95.8229 70.912 95.8709 70.784 95.9669 70.688C96.0789 70.576 96.2149 70.52 96.3749 70.52H97.5029C97.6629 70.52 97.7909 70.576 97.8869 70.688C97.9989 70.784 98.0549 70.912 98.0549 71.072V72.128C98.5189 71.536 99.0629 71.08 99.6869 70.76C100.327 70.44 101.119 70.28 102.063 70.28C103.599 70.28 104.791 70.776 105.639 71.768C106.503 72.744 106.935 74.048 106.935 75.68V82.448C106.935 82.608 106.879 82.744 106.767 82.856C106.671 82.952 106.543 83 106.383 83H105.183C105.023 83 104.887 82.952 104.775 82.856C104.679 82.744 104.631 82.608 104.631 82.448V75.8C104.631 74.664 104.351 73.784 103.791 73.16C103.247 72.536 102.455 72.224 101.415 72.224C100.407 72.224 99.6069 72.544 99.0149 73.184C98.4229 73.808 98.1269 74.68 98.1269 75.8V82.448C98.1269 82.608 98.0709 82.744 97.9589 82.856C97.8629 82.952 97.7349 83 97.5749 83H96.3749ZM114.698 83.24C113.578 83.24 112.634 83.064 111.866 82.712C111.114 82.344 110.546 81.928 110.162 81.464C109.794 81 109.61 80.616 109.61 80.312C109.61 80.152 109.666 80.032 109.778 79.952C109.906 79.856 110.034 79.808 110.162 79.808H111.242C111.402 79.808 111.546 79.888 111.674 80.048C112.058 80.496 112.474 80.848 112.922 81.104C113.37 81.36 113.97 81.488 114.722 81.488C115.554 81.488 116.226 81.328 116.738 81.008C117.266 80.672 117.53 80.216 117.53 79.64C117.53 79.256 117.418 78.944 117.194 78.704C116.986 78.448 116.618 78.232 116.09 78.056C115.578 77.864 114.81 77.656 113.786 77.432C112.394 77.128 111.402 76.688 110.81 76.112C110.234 75.536 109.946 74.792 109.946 73.88C109.946 73.272 110.122 72.696 110.474 72.152C110.842 71.592 111.37 71.144 112.058 70.808C112.762 70.456 113.602 70.28 114.578 70.28C115.602 70.28 116.474 70.448 117.194 70.784C117.914 71.12 118.45 71.52 118.802 71.984C119.17 72.432 119.354 72.808 119.354 73.112C119.354 73.256 119.298 73.376 119.186 73.472C119.09 73.568 118.97 73.616 118.826 73.616H117.818C117.626 73.616 117.466 73.536 117.338 73.376C117.082 73.072 116.858 72.84 116.666 72.68C116.49 72.504 116.226 72.352 115.874 72.224C115.538 72.096 115.106 72.032 114.578 72.032C113.81 72.032 113.218 72.2 112.802 72.536C112.386 72.856 112.178 73.28 112.178 73.808C112.178 74.144 112.266 74.432 112.442 74.672C112.618 74.896 112.954 75.104 113.45 75.296C113.962 75.488 114.698 75.688 115.658 75.896C117.178 76.216 118.25 76.68 118.874 77.288C119.514 77.88 119.834 78.64 119.834 79.568C119.834 80.256 119.634 80.88 119.234 81.44C118.834 82 118.242 82.44 117.458 82.76C116.69 83.08 115.77 83.24 114.698 83.24ZM127.724 83.24C125.964 83.24 124.596 82.744 123.62 81.752C122.66 80.76 122.148 79.44 122.084 77.792L122.06 76.76L122.084 75.728C122.148 74.096 122.668 72.784 123.644 71.792C124.62 70.784 125.98 70.28 127.724 70.28C129.468 70.28 130.828 70.784 131.804 71.792C132.78 72.784 133.3 74.096 133.364 75.728C133.38 75.904 133.388 76.248 133.388 76.76C133.388 77.272 133.38 77.616 133.364 77.792C133.3 79.44 132.78 80.76 131.804 81.752C130.844 82.744 129.484 83.24 127.724 83.24ZM127.724 81.392C128.732 81.392 129.524 81.072 130.1 80.432C130.692 79.792 131.012 78.872 131.06 77.672C131.076 77.512 131.084 77.208 131.084 76.76C131.084 76.312 131.076 76.008 131.06 75.848C131.012 74.648 130.692 73.728 130.1 73.088C129.524 72.448 128.732 72.128 127.724 72.128C126.716 72.128 125.916 72.448 125.324 73.088C124.732 73.728 124.42 74.648 124.388 75.848L124.364 76.76L124.388 77.672C124.42 78.872 124.732 79.792 125.324 80.432C125.916 81.072 126.716 81.392 127.724 81.392ZM136.969 83C136.809 83 136.673 82.952 136.561 82.856C136.465 82.744 136.417 82.608 136.417 82.448V66.512C136.417 66.352 136.465 66.224 136.561 66.128C136.673 66.016 136.809 65.96 136.969 65.96H138.097C138.257 65.96 138.385 66.016 138.481 66.128C138.593 66.224 138.649 66.352 138.649 66.512V82.448C138.649 82.608 138.593 82.744 138.481 82.856C138.385 82.952 138.257 83 138.097 83H136.969ZM142.589 68.192C142.429 68.192 142.293 68.144 142.181 68.048C142.085 67.936 142.037 67.8 142.037 67.64V66.344C142.037 66.184 142.085 66.048 142.181 65.936C142.293 65.824 142.429 65.768 142.589 65.768H144.101C144.261 65.768 144.397 65.824 144.509 65.936C144.621 66.048 144.677 66.184 144.677 66.344V67.64C144.677 67.8 144.621 67.936 144.509 68.048C144.397 68.144 144.261 68.192 144.101 68.192H142.589ZM142.781 83C142.621 83 142.485 82.952 142.373 82.856C142.277 82.744 142.229 82.608 142.229 82.448V71.072C142.229 70.912 142.277 70.784 142.373 70.688C142.485 70.576 142.621 70.52 142.781 70.52H143.933C144.093 70.52 144.221 70.576 144.317 70.688C144.429 70.784 144.485 70.912 144.485 71.072V82.448C144.485 82.608 144.429 82.744 144.317 82.856C144.221 82.952 144.093 83 143.933 83H142.781ZM152.602 83.24C150.938 83.24 149.682 82.696 148.834 81.608C147.986 80.52 147.538 79.144 147.49 77.48L147.466 76.76L147.49 76.04C147.538 74.392 147.986 73.024 148.834 71.936C149.682 70.832 150.938 70.28 152.602 70.28C154.25 70.28 155.546 70.864 156.49 72.032V66.512C156.49 66.352 156.538 66.224 156.634 66.128C156.746 66.016 156.882 65.96 157.042 65.96H158.194C158.354 65.96 158.482 66.016 158.578 66.128C158.69 66.224 158.746 66.352 158.746 66.512V82.448C158.746 82.608 158.69 82.744 158.578 82.856C158.482 82.952 158.354 83 158.194 83H157.114C156.954 83 156.818 82.952 156.706 82.856C156.61 82.744 156.562 82.608 156.562 82.448V81.44C155.634 82.64 154.314 83.24 152.602 83.24ZM153.106 81.296C154.21 81.296 155.034 80.936 155.578 80.216C156.138 79.48 156.442 78.608 156.49 77.6C156.506 77.424 156.514 77.12 156.514 76.688C156.514 76.24 156.506 75.928 156.49 75.752C156.458 74.808 156.154 73.984 155.578 73.28C155.002 72.576 154.178 72.224 153.106 72.224C151.97 72.224 151.138 72.576 150.61 73.28C150.098 73.984 149.818 74.912 149.77 76.064L149.746 76.76C149.746 79.784 150.866 81.296 153.106 81.296ZM165.795 83.24C165.011 83.24 164.283 83.08 163.611 82.76C162.939 82.44 162.403 82.008 162.003 81.464C161.619 80.904 161.427 80.288 161.427 79.616C161.427 78.56 161.859 77.696 162.723 77.024C163.603 76.336 164.787 75.888 166.275 75.68L169.851 75.176V74.48C169.851 72.848 168.915 72.032 167.043 72.032C166.339 72.032 165.763 72.184 165.315 72.488C164.867 72.776 164.531 73.12 164.307 73.52C164.259 73.664 164.195 73.768 164.115 73.832C164.051 73.896 163.955 73.928 163.827 73.928H162.795C162.651 73.928 162.523 73.88 162.411 73.784C162.315 73.672 162.267 73.544 162.267 73.4C162.283 73.016 162.459 72.584 162.795 72.104C163.147 71.608 163.683 71.184 164.403 70.832C165.123 70.464 166.011 70.28 167.067 70.28C168.859 70.28 170.147 70.704 170.931 71.552C171.715 72.384 172.107 73.424 172.107 74.672V82.448C172.107 82.608 172.051 82.744 171.939 82.856C171.843 82.952 171.715 83 171.555 83H170.451C170.291 83 170.155 82.952 170.043 82.856C169.947 82.744 169.899 82.608 169.899 82.448V81.416C169.547 81.928 169.035 82.36 168.363 82.712C167.691 83.064 166.835 83.24 165.795 83.24ZM166.299 81.44C167.339 81.44 168.187 81.104 168.843 80.432C169.515 79.744 169.851 78.76 169.851 77.48V76.808L167.067 77.216C165.931 77.376 165.075 77.648 164.499 78.032C163.923 78.4 163.635 78.872 163.635 79.448C163.635 80.088 163.899 80.584 164.427 80.936C164.955 81.272 165.579 81.44 166.299 81.44ZM180.312 83C177.784 83 176.52 81.592 176.52 78.776V72.44H174.648C174.488 72.44 174.352 72.392 174.24 72.296C174.144 72.184 174.096 72.048 174.096 71.888V71.072C174.096 70.912 174.144 70.784 174.24 70.688C174.352 70.576 174.488 70.52 174.648 70.52H176.52V66.512C176.52 66.352 176.568 66.224 176.664 66.128C176.776 66.016 176.912 65.96 177.072 65.96H178.2C178.36 65.96 178.488 66.016 178.584 66.128C178.696 66.224 178.752 66.352 178.752 66.512V70.52H181.728C181.888 70.52 182.016 70.576 182.112 70.688C182.224 70.784 182.28 70.912 182.28 71.072V71.888C182.28 72.048 182.224 72.184 182.112 72.296C182.016 72.392 181.888 72.44 181.728 72.44H178.752V78.608C178.752 79.408 178.888 80.016 179.16 80.432C179.432 80.832 179.88 81.032 180.504 81.032H181.968C182.128 81.032 182.256 81.088 182.352 81.2C182.464 81.296 182.52 81.424 182.52 81.584V82.448C182.52 82.608 182.464 82.744 182.352 82.856C182.256 82.952 182.128 83 181.968 83H180.312ZM189.807 83.24C188.159 83.24 186.839 82.736 185.847 81.728C184.871 80.704 184.335 79.312 184.239 77.552L184.215 76.736L184.239 75.944C184.351 74.216 184.895 72.84 185.871 71.816C186.863 70.792 188.167 70.28 189.783 70.28C191.559 70.28 192.935 70.848 193.911 71.984C194.887 73.104 195.375 74.624 195.375 76.544V76.952C195.375 77.112 195.319 77.248 195.207 77.36C195.111 77.456 194.983 77.504 194.823 77.504H186.519V77.72C186.567 78.76 186.879 79.648 187.455 80.384C188.047 81.104 188.823 81.464 189.783 81.464C190.519 81.464 191.119 81.32 191.583 81.032C192.063 80.728 192.415 80.416 192.639 80.096C192.783 79.904 192.887 79.792 192.951 79.76C193.031 79.712 193.167 79.688 193.359 79.688H194.535C194.679 79.688 194.799 79.728 194.895 79.808C194.991 79.888 195.039 80 195.039 80.144C195.039 80.496 194.815 80.92 194.367 81.416C193.935 81.912 193.319 82.344 192.519 82.712C191.735 83.064 190.831 83.24 189.807 83.24ZM193.095 75.848V75.776C193.095 74.672 192.791 73.776 192.183 73.088C191.591 72.384 190.791 72.032 189.783 72.032C188.775 72.032 187.975 72.384 187.383 73.088C186.807 73.776 186.519 74.672 186.519 75.776V75.848H193.095ZM202.805 83.24C201.141 83.24 199.885 82.696 199.037 81.608C198.189 80.52 197.741 79.144 197.693 77.48L197.669 76.76L197.693 76.04C197.741 74.392 198.189 73.024 199.037 71.936C199.885 70.832 201.141 70.28 202.805 70.28C204.453 70.28 205.749 70.864 206.693 72.032V66.512C206.693 66.352 206.741 66.224 206.837 66.128C206.949 66.016 207.085 65.96 207.245 65.96H208.397C208.557 65.96 208.685 66.016 208.781 66.128C208.893 66.224 208.949 66.352 208.949 66.512V82.448C208.949 82.608 208.893 82.744 208.781 82.856C208.685 82.952 208.557 83 208.397 83H207.317C207.157 83 207.021 82.952 206.909 82.856C206.813 82.744 206.765 82.608 206.765 82.448V81.44C205.837 82.64 204.517 83.24 202.805 83.24ZM203.309 81.296C204.413 81.296 205.237 80.936 205.781 80.216C206.341 79.48 206.645 78.608 206.693 77.6C206.709 77.424 206.717 77.12 206.717 76.688C206.717 76.24 206.709 75.928 206.693 75.752C206.661 74.808 206.357 73.984 205.781 73.28C205.205 72.576 204.381 72.224 203.309 72.224C202.173 72.224 201.341 72.576 200.813 73.28C200.301 73.984 200.021 74.912 199.973 76.064L199.949 76.76C199.949 79.784 201.069 81.296 203.309 81.296ZM221.881 83.24C221.097 83.24 220.369 83.08 219.697 82.76C219.025 82.44 218.489 82.008 218.089 81.464C217.705 80.904 217.513 80.288 217.513 79.616C217.513 78.56 217.945 77.696 218.809 77.024C219.689 76.336 220.873 75.888 222.361 75.68L225.937 75.176V74.48C225.937 72.848 225.001 72.032 223.129 72.032C222.425 72.032 221.849 72.184 221.401 72.488C220.953 72.776 220.617 73.12 220.393 73.52C220.345 73.664 220.281 73.768 220.201 73.832C220.137 73.896 220.041 73.928 219.913 73.928H218.881C218.737 73.928 218.609 73.88 218.497 73.784C218.401 73.672 218.353 73.544 218.353 73.4C218.369 73.016 218.545 72.584 218.881 72.104C219.233 71.608 219.769 71.184 220.489 70.832C221.209 70.464 222.097 70.28 223.153 70.28C224.945 70.28 226.233 70.704 227.017 71.552C227.801 72.384 228.193 73.424 228.193 74.672V82.448C228.193 82.608 228.137 82.744 228.025 82.856C227.929 82.952 227.801 83 227.641 83H226.537C226.377 83 226.241 82.952 226.129 82.856C226.033 82.744 225.985 82.608 225.985 82.448V81.416C225.633 81.928 225.121 82.36 224.449 82.712C223.777 83.064 222.921 83.24 221.881 83.24ZM222.385 81.44C223.425 81.44 224.273 81.104 224.929 80.432C225.601 79.744 225.937 78.76 225.937 77.48V76.808L223.153 77.216C222.017 77.376 221.161 77.648 220.585 78.032C220.009 78.4 219.721 78.872 219.721 79.448C219.721 80.088 219.985 80.584 220.513 80.936C221.041 81.272 221.665 81.44 222.385 81.44ZM236.683 83.24C234.971 83.24 233.627 82.76 232.651 81.8C231.691 80.824 231.179 79.464 231.115 77.72L231.091 76.76L231.115 75.8C231.179 74.056 231.691 72.704 232.651 71.744C233.627 70.768 234.971 70.28 236.683 70.28C237.835 70.28 238.811 70.488 239.611 70.904C240.411 71.32 241.003 71.832 241.387 72.44C241.787 73.048 242.003 73.656 242.035 74.264C242.051 74.424 242.003 74.552 241.891 74.648C241.779 74.744 241.643 74.792 241.483 74.792H240.331C240.171 74.792 240.051 74.76 239.971 74.696C239.891 74.632 239.811 74.504 239.731 74.312C239.459 73.544 239.075 73 238.579 72.68C238.083 72.344 237.459 72.176 236.707 72.176C235.715 72.176 234.923 72.488 234.331 73.112C233.755 73.72 233.443 74.656 233.395 75.92L233.371 76.784L233.395 77.6C233.443 78.88 233.755 79.824 234.331 80.432C234.907 81.04 235.699 81.344 236.707 81.344C237.459 81.344 238.083 81.184 238.579 80.864C239.075 80.528 239.459 79.976 239.731 79.208C239.811 79.016 239.891 78.888 239.971 78.824C240.051 78.744 240.171 78.704 240.331 78.704H241.483C241.643 78.704 241.779 78.76 241.891 78.872C242.003 78.968 242.051 79.096 242.035 79.256C242.003 79.848 241.787 80.456 241.387 81.08C241.003 81.688 240.411 82.2 239.611 82.616C238.827 83.032 237.851 83.24 236.683 83.24ZM249.925 83.24C248.213 83.24 246.869 82.76 245.893 81.8C244.933 80.824 244.421 79.464 244.357 77.72L244.333 76.76L244.357 75.8C244.421 74.056 244.933 72.704 245.893 71.744C246.869 70.768 248.213 70.28 249.925 70.28C251.077 70.28 252.053 70.488 252.853 70.904C253.653 71.32 254.245 71.832 254.629 72.44C255.029 73.048 255.245 73.656 255.277 74.264C255.293 74.424 255.245 74.552 255.133 74.648C255.021 74.744 254.885 74.792 254.725 74.792H253.573C253.413 74.792 253.293 74.76 253.213 74.696C253.133 74.632 253.053 74.504 252.973 74.312C252.701 73.544 252.317 73 251.821 72.68C251.325 72.344 250.701 72.176 249.949 72.176C248.957 72.176 248.165 72.488 247.573 73.112C246.997 73.72 246.685 74.656 246.637 75.92L246.613 76.784L246.637 77.6C246.685 78.88 246.997 79.824 247.573 80.432C248.149 81.04 248.941 81.344 249.949 81.344C250.701 81.344 251.325 81.184 251.821 80.864C252.317 80.528 252.701 79.976 252.973 79.208C253.053 79.016 253.133 78.888 253.213 78.824C253.293 78.744 253.413 78.704 253.573 78.704H254.725C254.885 78.704 255.021 78.76 255.133 78.872C255.245 78.968 255.293 79.096 255.277 79.256C255.245 79.848 255.029 80.456 254.629 81.08C254.245 81.688 253.653 82.2 252.853 82.616C252.069 83.032 251.093 83.24 249.925 83.24ZM263.24 83.24C261.48 83.24 260.112 82.744 259.136 81.752C258.176 80.76 257.664 79.44 257.6 77.792L257.576 76.76L257.6 75.728C257.664 74.096 258.184 72.784 259.16 71.792C260.136 70.784 261.496 70.28 263.24 70.28C264.984 70.28 266.344 70.784 267.32 71.792C268.296 72.784 268.816 74.096 268.88 75.728C268.896 75.904 268.904 76.248 268.904 76.76C268.904 77.272 268.896 77.616 268.88 77.792C268.816 79.44 268.296 80.76 267.32 81.752C266.36 82.744 265 83.24 263.24 83.24ZM263.24 81.392C264.248 81.392 265.04 81.072 265.616 80.432C266.208 79.792 266.528 78.872 266.576 77.672C266.592 77.512 266.6 77.208 266.6 76.76C266.6 76.312 266.592 76.008 266.576 75.848C266.528 74.648 266.208 73.728 265.616 73.088C265.04 72.448 264.248 72.128 263.24 72.128C262.232 72.128 261.432 72.448 260.84 73.088C260.248 73.728 259.936 74.648 259.904 75.848L259.88 76.76L259.904 77.672C259.936 78.872 260.248 79.792 260.84 80.432C261.432 81.072 262.232 81.392 263.24 81.392ZM276.565 83.24C275.045 83.24 273.869 82.752 273.037 81.776C272.205 80.784 271.789 79.472 271.789 77.84V71.072C271.789 70.912 271.837 70.784 271.933 70.688C272.045 70.576 272.181 70.52 272.341 70.52H273.541C273.701 70.52 273.829 70.576 273.925 70.688C274.037 70.784 274.093 70.912 274.093 71.072V77.72C274.093 80.104 275.133 81.296 277.213 81.296C278.221 81.296 279.021 80.984 279.613 80.36C280.205 79.72 280.501 78.84 280.501 77.72V71.072C280.501 70.912 280.549 70.784 280.645 70.688C280.757 70.576 280.893 70.52 281.053 70.52H282.253C282.413 70.52 282.541 70.576 282.637 70.688C282.733 70.784 282.781 70.912 282.781 71.072V82.448C282.781 82.608 282.733 82.744 282.637 82.856C282.541 82.952 282.413 83 282.253 83H281.125C280.965 83 280.829 82.952 280.717 82.856C280.621 82.744 280.573 82.608 280.573 82.448V81.392C280.125 82 279.581 82.464 278.941 82.784C278.301 83.088 277.509 83.24 276.565 83.24ZM286.898 83C286.738 83 286.602 82.952 286.49 82.856C286.394 82.744 286.346 82.608 286.346 82.448V71.072C286.346 70.912 286.394 70.784 286.49 70.688C286.602 70.576 286.738 70.52 286.898 70.52H288.026C288.186 70.52 288.314 70.576 288.41 70.688C288.522 70.784 288.578 70.912 288.578 71.072V72.128C289.042 71.536 289.586 71.08 290.21 70.76C290.85 70.44 291.642 70.28 292.586 70.28C294.122 70.28 295.314 70.776 296.162 71.768C297.026 72.744 297.458 74.048 297.458 75.68V82.448C297.458 82.608 297.402 82.744 297.29 82.856C297.194 82.952 297.066 83 296.906 83H295.706C295.546 83 295.41 82.952 295.298 82.856C295.202 82.744 295.154 82.608 295.154 82.448V75.8C295.154 74.664 294.874 73.784 294.314 73.16C293.77 72.536 292.978 72.224 291.938 72.224C290.93 72.224 290.13 72.544 289.538 73.184C288.946 73.808 288.65 74.68 288.65 75.8V82.448C288.65 82.608 288.594 82.744 288.482 82.856C288.386 82.952 288.258 83 288.098 83H286.898ZM305.609 83C303.081 83 301.817 81.592 301.817 78.776V72.44H299.945C299.785 72.44 299.649 72.392 299.537 72.296C299.441 72.184 299.393 72.048 299.393 71.888V71.072C299.393 70.912 299.441 70.784 299.537 70.688C299.649 70.576 299.785 70.52 299.945 70.52H301.817V66.512C301.817 66.352 301.865 66.224 301.961 66.128C302.073 66.016 302.209 65.96 302.369 65.96H303.497C303.657 65.96 303.785 66.016 303.881 66.128C303.993 66.224 304.049 66.352 304.049 66.512V70.52H307.025C307.185 70.52 307.313 70.576 307.409 70.688C307.521 70.784 307.577 70.912 307.577 71.072V71.888C307.577 72.048 307.521 72.184 307.409 72.296C307.313 72.392 307.185 72.44 307.025 72.44H304.049V78.608C304.049 79.408 304.185 80.016 304.457 80.432C304.729 80.832 305.177 81.032 305.801 81.032H307.265C307.425 81.032 307.553 81.088 307.649 81.2C307.761 81.296 307.817 81.424 307.817 81.584V82.448C307.817 82.608 307.761 82.744 307.649 82.856C307.553 82.952 307.425 83 307.265 83H305.609ZM314.432 83.24C313.312 83.24 312.368 83.064 311.6 82.712C310.848 82.344 310.28 81.928 309.896 81.464C309.528 81 309.344 80.616 309.344 80.312C309.344 80.152 309.4 80.032 309.512 79.952C309.64 79.856 309.768 79.808 309.896 79.808H310.976C311.136 79.808 311.28 79.888 311.408 80.048C311.792 80.496 312.208 80.848 312.656 81.104C313.104 81.36 313.704 81.488 314.456 81.488C315.288 81.488 315.96 81.328 316.472 81.008C317 80.672 317.264 80.216 317.264 79.64C317.264 79.256 317.152 78.944 316.928 78.704C316.72 78.448 316.352 78.232 315.824 78.056C315.312 77.864 314.544 77.656 313.52 77.432C312.128 77.128 311.136 76.688 310.544 76.112C309.968 75.536 309.68 74.792 309.68 73.88C309.68 73.272 309.856 72.696 310.208 72.152C310.576 71.592 311.104 71.144 311.792 70.808C312.496 70.456 313.336 70.28 314.312 70.28C315.336 70.28 316.208 70.448 316.928 70.784C317.648 71.12 318.184 71.52 318.536 71.984C318.904 72.432 319.088 72.808 319.088 73.112C319.088 73.256 319.032 73.376 318.92 73.472C318.824 73.568 318.704 73.616 318.56 73.616H317.552C317.36 73.616 317.2 73.536 317.072 73.376C316.816 73.072 316.592 72.84 316.4 72.68C316.224 72.504 315.96 72.352 315.608 72.224C315.272 72.096 314.84 72.032 314.312 72.032C313.544 72.032 312.952 72.2 312.536 72.536C312.12 72.856 311.912 73.28 311.912 73.808C311.912 74.144 312 74.432 312.176 74.672C312.352 74.896 312.688 75.104 313.184 75.296C313.696 75.488 314.432 75.688 315.392 75.896C316.912 76.216 317.984 76.68 318.608 77.288C319.248 77.88 319.568 78.64 319.568 79.568C319.568 80.256 319.368 80.88 318.968 81.44C318.568 82 317.976 82.44 317.192 82.76C316.424 83.08 315.504 83.24 314.432 83.24ZM333.077 83C332.917 83 332.781 82.952 332.669 82.856C332.573 82.744 332.525 82.608 332.525 82.448V69.008L328.541 72.08C328.429 72.176 328.309 72.224 328.181 72.224C328.037 72.224 327.901 72.144 327.773 71.984L327.149 71.192C327.069 71.08 327.029 70.968 327.029 70.856C327.029 70.664 327.109 70.512 327.269 70.4L332.501 66.368C332.677 66.256 332.885 66.2 333.125 66.2H334.349C334.509 66.2 334.637 66.256 334.733 66.368C334.845 66.464 334.901 66.592 334.901 66.752V82.448C334.901 82.608 334.845 82.744 334.733 82.856C334.637 82.952 334.509 83 334.349 83H333.077Z" fill="#F2F2F2"/>
</svg>
