<svg width="100" height="50" viewBox="0 0 100 50" fill="none" xmlns="http://www.w3.org/2000/svg">
<rect width="100" height="50" fill="#343A40"/>
<path d="M29.7061 28.6865L30.7168 32H32.334L28.2734 19.2031H26.9111L22.7803 32H24.4062L25.4346 28.6865H29.7061ZM25.874 27.2715L27.5879 21.7168L29.2754 27.2715H25.874ZM37.2383 30.9453C37.2383 31.2852 37.3438 31.5752 37.5547 31.8154C37.7715 32.0498 38.0908 32.167 38.5127 32.167C38.9287 32.167 39.248 32.0498 39.4707 31.8154C39.6934 31.5811 39.8047 31.291 39.8047 30.9453C39.8047 30.5938 39.6934 30.2979 39.4707 30.0576C39.2539 29.8115 38.9346 29.6885 38.5127 29.6885C38.085 29.6885 37.7656 29.8115 37.5547 30.0576C37.3438 30.3037 37.2383 30.5996 37.2383 30.9453ZM58.8594 30.9453C58.8594 31.2852 58.9648 31.5752 59.1758 31.8154C59.3926 32.0498 59.7119 32.167 60.1338 32.167C60.5498 32.167 60.8691 32.0498 61.0918 31.8154C61.3145 31.5811 61.4258 31.291 61.4258 30.9453C61.4258 30.5938 61.3145 30.2979 61.0918 30.0576C60.875 29.8115 60.5557 29.6885 60.1338 29.6885C59.7061 29.6885 59.3867 29.8115 59.1758 30.0576C58.9648 30.3037 58.8594 30.5996 58.8594 30.9453ZM80.4805 30.9453C80.4805 31.2852 80.5859 31.5752 80.7969 31.8154C81.0137 32.0498 81.333 32.167 81.7549 32.167C82.1709 32.167 82.4902 32.0498 82.7129 31.8154C82.9355 31.5811 83.0469 31.291 83.0469 30.9453C83.0469 30.5938 82.9355 30.2979 82.7129 30.0576C82.4961 29.8115 82.1768 29.6885 81.7549 29.6885C81.3271 29.6885 81.0078 29.8115 80.7969 30.0576C80.5859 30.3037 80.4805 30.5996 80.4805 30.9453Z" fill="#F2F2F2"/>
<path d="M53.252 19.2031H51.6787L51.6523 27.8691C51.6406 28.25 51.5791 28.6162 51.4678 28.9678C51.3564 29.3193 51.1953 29.6299 50.9844 29.8994C50.7676 30.1748 50.501 30.3945 50.1846 30.5586C49.8682 30.7168 49.502 30.7959 49.0859 30.7959C48.6699 30.7959 48.3008 30.7139 47.9785 30.5498C47.6621 30.3857 47.3984 30.1689 47.1875 29.8994C46.9707 29.6299 46.8037 29.3193 46.6865 28.9678C46.5752 28.6162 46.5166 28.25 46.5107 27.8691L46.4756 19.2031H44.9287L44.9111 27.8691C44.917 28.4668 45.0225 29.0293 45.2275 29.5566C45.4326 30.0781 45.7168 30.5322 46.0801 30.9189C46.4434 31.3115 46.8799 31.6191 47.3896 31.8418C47.8994 32.0645 48.4648 32.1758 49.0859 32.1758C49.6953 32.1758 50.2549 32.0645 50.7646 31.8418C51.2744 31.6133 51.7139 31.3027 52.083 30.9102C52.4521 30.5234 52.7422 30.0693 52.9531 29.5479C53.1641 29.0264 53.2695 28.4668 53.2695 27.8691L53.252 19.2031Z" fill="#EB5757"/>
<path d="M73.5371 28.7656C73.5371 29.1172 73.4609 29.4219 73.3086 29.6797C73.1562 29.9316 72.96 30.1396 72.7197 30.3037C72.4795 30.4736 72.2041 30.5996 71.8936 30.6816C71.5889 30.7578 71.2783 30.7959 70.9619 30.7959C70.5635 30.7959 70.1943 30.7432 69.8545 30.6377C69.5205 30.5264 69.2246 30.3623 68.9668 30.1455C68.709 29.9346 68.498 29.6768 68.334 29.3721C68.1699 29.0615 68.0615 28.707 68.0088 28.3086H66.3477C66.3652 28.8594 66.4854 29.3604 66.708 29.8115C66.9365 30.2568 67.2441 30.6465 67.6309 30.9805C68.0645 31.3672 68.5742 31.6631 69.1602 31.8682C69.752 32.0732 70.3525 32.1758 70.9619 32.1758C71.4717 32.1758 71.9814 32.1055 72.4912 31.9648C73.001 31.8184 73.458 31.6016 73.8623 31.3145C74.2666 31.0332 74.5947 30.6787 74.8467 30.251C75.1045 29.8232 75.2334 29.3223 75.2334 28.748C75.2334 28.1797 75.1133 27.6787 74.873 27.2451C74.6387 26.8115 74.3281 26.4453 73.9414 26.1465C73.5488 25.8242 73.1152 25.5605 72.6406 25.3555C72.166 25.1445 71.6914 24.9658 71.2168 24.8193C70.9297 24.7314 70.6221 24.6289 70.2939 24.5117C69.9717 24.3945 69.6729 24.248 69.3975 24.0723C69.1162 23.8965 68.8848 23.6826 68.7031 23.4307C68.5215 23.1729 68.4277 22.8594 68.4219 22.4902C68.4219 22.1504 68.4893 21.8516 68.624 21.5938C68.7646 21.3359 68.9521 21.1191 69.1865 20.9434C69.415 20.7676 69.6758 20.6357 69.9688 20.5479C70.2676 20.46 70.5723 20.416 70.8828 20.416C71.2695 20.416 71.6152 20.4775 71.9199 20.6006C72.2305 20.7178 72.4971 20.8848 72.7197 21.1016C72.9424 21.3184 73.1211 21.5791 73.2559 21.8838C73.3906 22.1826 73.4814 22.5166 73.5283 22.8857H75.1982C75.1865 22.2998 75.0605 21.7695 74.8203 21.2949C74.5801 20.8203 74.2607 20.416 73.8623 20.082C73.4639 19.748 73.0068 19.4902 72.4912 19.3086C71.9756 19.1211 71.4395 19.0273 70.8828 19.0273C70.3789 19.0273 69.8779 19.1064 69.3799 19.2646C68.8818 19.417 68.4365 19.6426 68.0439 19.9414C67.6514 20.2402 67.332 20.6064 67.0859 21.04C66.8457 21.4736 66.7256 21.9658 66.7256 22.5166C66.7256 23.0674 66.8457 23.5479 67.0859 23.958C67.332 24.3623 67.6484 24.7139 68.0352 25.0127C68.416 25.3057 68.8379 25.5576 69.3008 25.7686C69.7695 25.9736 70.2295 26.1494 70.6807 26.2959C70.9912 26.3955 71.3135 26.5068 71.6475 26.6299C71.9873 26.7529 72.2979 26.9053 72.5791 27.0869C72.8604 27.2744 73.0889 27.5029 73.2646 27.7725C73.4463 28.042 73.5371 28.373 73.5371 28.7656Z" fill="#2F80ED"/>
</svg>
